<svg xmlns="http://www.w3.org/2000/svg" xmlns:xlink="http://www.w3.org/1999/xlink" version="1.1" viewBox="0 0 4725 2148" style="background: #ffffff"><defs joint-selector="defs"></defs><g joint-selector="layers"  transform="matrix(1,0,0,1,0,0)"><g ></g><g ><!--z-index:0--><!--z-index:1--><!--z-index:2--><!--z-index:3--><!--z-index:4--><!--z-index:5--><!--z-index:6--><!--z-index:7--><!--z-index:8--><!--z-index:9--><!--z-index:10--><!--z-index:11--><!--z-index:12--><!--z-index:13--><!--z-index:14--><!--z-index:15--><!--z-index:16--><!--z-index:17--><!--z-index:18--><!--z-index:19--><!--z-index:20--><!--z-index:21--><!--z-index:22--><!--z-index:23--><!--z-index:24--><!--z-index:25--><!--z-index:26--><!--z-index:27--><!--z-index:28--><!--z-index:29--><!--z-index:30--><!--z-index:31--><!--z-index:32--><!--z-index:33--><!--z-index:34--><!--z-index:35--><!--z-index:36--><!--z-index:37--><g   id="j_59"  transform="translate(20,2104)"><g id="v-783"><text  id="v-784" font-size="24px" xml:space="preserve" y="0.8em" font-weight="normal" text-anchor="start" fill="#000000" pointer-events="none" display="block" font-family="Open Sans, Tahoma, Arial"><tspan dy="0"  display="block">måndag 15 december 2025 kl. 18:01 centraleuropeisk normaltid</tspan></text></g></g><!--z-index:38--><g   id="j_58"  transform="translate(20,2070)"><g id="v-781"><text  id="v-782" font-size="24px" xml:space="preserve" y="0.8em" font-weight="normal" text-anchor="start" fill="#000000" pointer-events="none" display="block" font-family="Open Sans, Tahoma, Arial"><tspan dy="0"  display="block">Component diagram showing nginx internals</tspan></text></g></g><!--z-index:39--><g   id="j_57"  transform="translate(20,2024)"><g id="v-779"><text  id="v-780" font-size="36px" xml:space="preserve" y="0.8em" font-weight="normal" text-anchor="start" fill="#000000" pointer-events="none" display="block" font-family="Open Sans, Tahoma, Arial"><tspan dy="0"  display="block">Component View: Webinar Registration Website - Reverse Proxy</tspan></text></g></g><!--z-index:40--><g   id="j_60"  transform="translate(200,142)" style=""><g  id="v-791" style="opacity: 1;"><rect  x="0" y="160" width="400" height="240" rx="70" id="v-793" stroke-width="2" pointer-events="visiblePainted" fill="#08427b" stroke="#073b6f" stroke-dasharray=""></rect><circle  cx="200" cy="88.88888888888889" r="88.88888888888889" id="v-792" stroke-width="2" pointer-events="visiblePainted" fill="#08427b" stroke="#073b6f" stroke-dasharray=""></circle><line  x1="80" y1="266.6666666666667" x2="80" y2="400" id="v-799" stroke="#073b6f" stroke-width="1" stroke-dasharray=""></line><line  x1="320" y1="266.6666666666667" x2="320" y2="400" id="v-800" stroke="#073b6f" stroke-width="1" stroke-dasharray=""></line><text  id="v-794" font-size="33.599999999999994px" xml:space="preserve" y="216.9" font-weight="bold" text-anchor="middle" pointer-events="visible" font-family="Open Sans, Tahoma, Arial" fill="#ffffff" dominant-baseline="hanging" transform="matrix(1,0,0,1,200,0)"><tspan dy="0" >Event Attendee</tspan></text><text  id="v-795" font-size="16.799999999999997px" xml:space="preserve" y="258.5" text-anchor="middle" font-family="Open Sans, Tahoma, Arial" fill="#ffffff" dominant-baseline="hanging" transform="matrix(1,0,0,1,200,0)" style="display: block;"><tspan dy="0" >[Person]</tspan></text><text  id="v-796" font-size="24px" xml:space="preserve" y="290.3" text-anchor="middle" font-family="Open Sans, Tahoma, Arial" fill="#ffffff" dominant-baseline="hanging" transform="matrix(1,0,0,1,200,0)" style="display: block;"><tspan dy="0" >Primary actor - registers for</tspan><tspan dy="1.2em" x="0" >and attends webinars</tspan></text><g  id="v-797" font-weight="normal" text-anchor="middle" color="#ffffff" transform="matrix(1,0,0,1,197.5,368)" display="none"><g ></g><g ></g><g ></g><g ></g></g><image  id="v-798"></image></g></g><!--z-index:41--><g   id="j_62"  transform="translate(1005,172)" style=""><g id="v-814"><rect  id="v-815" width="3520" height="1718" rx="20" ry="20" stroke-width="2" pointer-events="none" stroke="#3c7fc0" fill="#ffffff" stroke-dasharray=""></rect><text  id="v-816" font-size="33.599999999999994px" xml:space="preserve" y="1679" font-weight="bold" text-anchor="start" pointer-events="visible" font-family="Open Sans, Tahoma, Arial" fill="#ffffff" transform="matrix(1,0,0,1,15,0)"><tspan dy="0" >Webinar Registration Website</tspan></text><text  id="v-817" font-size="16.799999999999997px" xml:space="preserve" y="1703" font-weight="normal" text-anchor="start" pointer-events="visible" font-family="Open Sans, Tahoma, Arial" fill="#ffffff" transform="matrix(1,0,0,1,15,0)"><tspan dy="0" >[Software System]</tspan></text><image  id="v-818" pointer-events="visible"></image></g></g><!--z-index:42--><g   id="j_61"  transform="translate(1025,212)" style=""><g  id="v-807" style="opacity: 1;"><rect  id="v-808" rx="20" ry="20" stroke-width="2" pointer-events="visiblePainted" fill="#08427b" stroke="#073b6f" stroke-dasharray="" width="450" height="300"></rect><text  id="v-809" font-size="33.599999999999994px" xml:space="preserve" y="101.30000000000001" font-weight="bold" text-anchor="middle" pointer-events="visible" font-family="Open Sans, Tahoma, Arial" fill="#ffffff" dominant-baseline="hanging" transform="matrix(1,0,0,1,225,0)"><tspan dy="0" >Web Browser</tspan></text><text  id="v-810" font-size="16.799999999999997px" xml:space="preserve" y="142.9" text-anchor="middle" font-family="Open Sans, Tahoma, Arial" fill="#ffffff" dominant-baseline="hanging" transform="matrix(1,0,0,1,225,0)" style="display: block;"><tspan dy="0" >[Container: Chrome, Firefox, Safari]</tspan></text><text  id="v-811" font-size="24px" xml:space="preserve" y="174.7" text-anchor="middle" font-family="Open Sans, Tahoma, Arial" fill="#ffffff" dominant-baseline="hanging" transform="matrix(1,0,0,1,225,0)" style="display: block;"><tspan dy="0" >Renders HTML, JavaScript and CSS</tspan></text><g  id="v-812" color="#ffffff" transform="matrix(1,0,0,1,222.5,268)" display="none"><g ></g><g ></g><g ></g><g ></g></g><image  id="v-813"></image></g></g><!--z-index:43--><g   id="j_64"  transform="translate(2055,192)" style=""><g id="v-835"><rect  id="v-836" width="610" height="1599" rx="20" ry="20" stroke-width="2" pointer-events="none" stroke="#3c7fc0" fill="#ffffff" stroke-dasharray=""></rect><text  id="v-837" font-size="33.599999999999994px" xml:space="preserve" y="1560" font-weight="bold" text-anchor="start" pointer-events="visible" font-family="Open Sans, Tahoma, Arial" fill="#ffffff" transform="matrix(1,0,0,1,15,0)"><tspan dy="0" >Reverse Proxy</tspan></text><text  id="v-838" font-size="16.799999999999997px" xml:space="preserve" y="1584" font-weight="normal" text-anchor="start" pointer-events="visible" font-family="Open Sans, Tahoma, Arial" fill="#ffffff" transform="matrix(1,0,0,1,15,0)"><tspan dy="0" >[Container]</tspan></text><image  id="v-839" pointer-events="visible"></image></g></g><!--z-index:44--><g   id="j_67"  transform="translate(3120,777)" style=""><g  id="v-875" style="opacity: 1;"><rect  id="v-876" rx="20" ry="20" stroke-width="2" pointer-events="visiblePainted" fill="#438dd5" stroke="#3c7fc0" stroke-dasharray="" width="450" height="300"></rect><text  id="v-877" font-size="33.599999999999994px" xml:space="preserve" y="86.9" font-weight="bold" text-anchor="middle" pointer-events="visible" font-family="Open Sans, Tahoma, Arial" fill="#ffffff" dominant-baseline="hanging" transform="matrix(1,0,0,1,225,0)"><tspan dy="0" >Flask Application</tspan></text><text  id="v-878" font-size="16.799999999999997px" xml:space="preserve" y="128.5" text-anchor="middle" font-family="Open Sans, Tahoma, Arial" fill="#ffffff" dominant-baseline="hanging" transform="matrix(1,0,0,1,225,0)" style="display: block;"><tspan dy="0" >[Container: Python/Gunicorn]</tspan></text><text  id="v-879" font-size="24px" xml:space="preserve" y="160.3" text-anchor="middle" font-family="Open Sans, Tahoma, Arial" fill="#ffffff" dominant-baseline="hanging" transform="matrix(1,0,0,1,225,0)" style="display: block;"><tspan dy="0" >Handles registration logic, serves</tspan><tspan dy="1.2em" x="0" >HTML</tspan></text><g  id="v-880" color="#ffffff" transform="matrix(1,0,0,1,210,268)" display="none"><g  transform="translate(5 0)"><svg xmlns="http://www.w3.org/2000/svg" width="20" height="20" fill="currentColor" viewBox="0 0 16 16"><path fill-rule="evenodd" d="M6.5 12a5.5 5.5 0 1 0 0-11 5.5 5.5 0 0 0 0 11zM13 6.5a6.5 6.5 0 1 1-13 0 6.5 6.5 0 0 1 13 0z"></path><path d="M10.344 11.742c.03.04.062.078.098.115l3.85 3.85a1 1 0 0 0 1.415-1.414l-3.85-3.85a1.007 1.007 0 0 0-.115-.1 6.538 6.538 0 0 1-1.398 1.4z"></path><path fill-rule="evenodd" d="M6.5 3a.5.5 0 0 1 .5.5V6h2.5a.5.5 0 0 1 0 1H7v2.5a.5.5 0 0 1-1 0V7H3.5a.5.5 0 0 1 0-1H6V3.5a.5.5 0 0 1 .5-.5z"></path></svg></g><g ></g><g ></g><g ></g></g><image  id="v-881"></image></g></g><!--z-index:45--><g   id="j_68"  transform="translate(4055,782)" style=""><g  id="v-891" style="opacity: 1;"><path  d="M 0,30 a 225,30 0,0,0 450 0 a 225,30 0,0,0 -450 0 l 0,240 a 225,30 0,0,0 450 0 l 0,-240" id="v-892" stroke-width="2" pointer-events="visiblePainted" fill="#438dd5" stroke="#3c7fc0" stroke-dasharray=""></path><rect  id="v-893" stroke-width="0" pointer-events="visiblePainted" fill="none" stroke="none" width="450" height="270" x="0" y="30"></rect><text  id="v-894" font-size="33.599999999999994px" xml:space="preserve" y="101.9" font-weight="bold" text-anchor="middle" pointer-events="visible" font-family="Open Sans, Tahoma, Arial" fill="#ffffff" dominant-baseline="hanging" transform="matrix(1,0,0,1,225,0)"><tspan dy="0" >PostgreSQL Database</tspan></text><text  id="v-895" font-size="16.799999999999997px" xml:space="preserve" y="143.5" text-anchor="middle" font-family="Open Sans, Tahoma, Arial" fill="#ffffff" dominant-baseline="hanging" transform="matrix(1,0,0,1,225,0)" style="display: block;"><tspan dy="0" >[Container: Managed PostgreSQL]</tspan></text><text  id="v-896" font-size="24px" xml:space="preserve" y="175.3" text-anchor="middle" font-family="Open Sans, Tahoma, Arial" fill="#ffffff" dominant-baseline="hanging" transform="matrix(1,0,0,1,225,0)" style="display: block;"><tspan dy="0" >Stores registration data</tspan><tspan dy="1.2em" x="0" >persistently</tspan></text><g  id="v-897" font-weight="normal" text-anchor="middle" color="#ffffff" transform="matrix(1,0,0,1,222.5,268)" display="none"><g ></g><g ></g><g ></g><g ></g></g><image  id="v-898"></image></g></g><!--z-index:46--><g   id="j_63"  transform="translate(2075,212)" style=""><g  id="v-828" style="opacity: 1;"><rect  id="v-829" rx="20" ry="20" stroke-width="2" pointer-events="visiblePainted" fill="#85bbf0" stroke="#78a8d8" stroke-dasharray="" width="450" height="300"></rect><text  id="v-830" font-size="33.599999999999994px" xml:space="preserve" y="101.30000000000001" font-weight="bold" text-anchor="middle" pointer-events="visible" font-family="Open Sans, Tahoma, Arial" fill="#000000" dominant-baseline="hanging" transform="matrix(1,0,0,1,225,0)"><tspan dy="0" >HTTP Redirect Block</tspan></text><text  id="v-831" font-size="16.799999999999997px" xml:space="preserve" y="142.9" text-anchor="middle" font-family="Open Sans, Tahoma, Arial" fill="#000000" dominant-baseline="hanging" transform="matrix(1,0,0,1,225,0)" style="display: block;"><tspan dy="0" >[Component: nginx server block port 80]</tspan></text><text  id="v-832" font-size="24px" xml:space="preserve" y="174.7" text-anchor="middle" font-family="Open Sans, Tahoma, Arial" fill="#000000" dominant-baseline="hanging" transform="matrix(1,0,0,1,225,0)" style="display: block;"><tspan dy="0" >Redirects HTTP to HTTPS</tspan></text><g  id="v-833" color="#000000" transform="matrix(1,0,0,1,222.5,268)" display="none"><g ></g><g ></g><g ></g><g ></g></g><image  id="v-834"></image></g></g><!--z-index:47--><g   id="j_65"  transform="translate(2075,787)" style=""><g  id="v-849" style="opacity: 1;"><rect  id="v-850" rx="20" ry="20" stroke-width="2" pointer-events="visiblePainted" fill="#85bbf0" stroke="#78a8d8" stroke-dasharray="" width="450" height="300"></rect><text  id="v-851" font-size="33.599999999999994px" xml:space="preserve" y="86.9" font-weight="bold" text-anchor="middle" pointer-events="visible" font-family="Open Sans, Tahoma, Arial" fill="#000000" dominant-baseline="hanging" transform="matrix(1,0,0,1,225,0)"><tspan dy="0" >HTTPS Server Block</tspan></text><text  id="v-852" font-size="16.799999999999997px" xml:space="preserve" y="128.5" text-anchor="middle" font-family="Open Sans, Tahoma, Arial" fill="#000000" dominant-baseline="hanging" transform="matrix(1,0,0,1,225,0)" style="display: block;"><tspan dy="0" >[Component: nginx server block port 443]</tspan></text><text  id="v-853" font-size="24px" xml:space="preserve" y="160.3" text-anchor="middle" font-family="Open Sans, Tahoma, Arial" fill="#000000" dominant-baseline="hanging" transform="matrix(1,0,0,1,225,0)" style="display: block;"><tspan dy="0" >SSL termination and request</tspan><tspan dy="1.2em" x="0" >handling</tspan></text><g  id="v-854" color="#000000" transform="matrix(1,0,0,1,222.5,268)" display="none"><g ></g><g ></g><g ></g><g ></g></g><image  id="v-855"></image></g></g><!--z-index:48--><g   id="j_66"  transform="translate(2195,1392)" style=""><g  id="v-862" style="opacity: 1;"><rect  id="v-863" rx="20" ry="20" stroke-width="2" pointer-events="visiblePainted" fill="#85bbf0" stroke="#78a8d8" stroke-dasharray="" width="450" height="300"></rect><text  id="v-864" font-size="33.599999999999994px" xml:space="preserve" y="101.30000000000001" font-weight="bold" text-anchor="middle" pointer-events="visible" font-family="Open Sans, Tahoma, Arial" fill="#000000" dominant-baseline="hanging" transform="matrix(1,0,0,1,225,0)"><tspan dy="0" >SSL Certificate</tspan></text><text  id="v-865" font-size="16.799999999999997px" xml:space="preserve" y="142.9" text-anchor="middle" font-family="Open Sans, Tahoma, Arial" fill="#000000" dominant-baseline="hanging" transform="matrix(1,0,0,1,225,0)" style="display: block;"><tspan dy="0" >[Component: Self-signed (OpenSSL)]</tspan></text><text  id="v-866" font-size="24px" xml:space="preserve" y="174.7" text-anchor="middle" font-family="Open Sans, Tahoma, Arial" fill="#000000" dominant-baseline="hanging" transform="matrix(1,0,0,1,225,0)" style="display: block;"><tspan dy="0" >TLS/SSL certificate for encryption</tspan></text><g  id="v-867" color="#000000" transform="matrix(1,0,0,1,222.5,268)" display="none"><g ></g><g ></g><g ></g><g ></g></g><image  id="v-868"></image></g></g><!--z-index:49--><g   id="j_69" ><path  stroke="#707070" d="M 600 347 L 1025 357" id="v-914" stroke-width="2" stroke-dasharray="8 8" fill="none" style="opacity: 1;"></path><path  fill="black" stroke="black" d="M 0 0 0 0" transform="matrix(0.9997232982802179,0.02352290109069346,-0.02352290109069346,0.9997232982802179,600,346.7099914550781)"></path><path  fill="#000000" stroke="#707070" d="M 20 0 L 0 10 L 20 20 z" id="v-916" transform="matrix(-0.9997232991611663,-0.023522863650353408,0.023522863650353408,-0.9997232991611663,1024.7647509371393,366.7072235910058)" style="opacity: 1;"></path><path  d="M 600 347 L 1025 357" id="v-915" fill="none" style="cursor: default;"></path><g ><g id="v-905"  label-idx="0" cursor="move" transform="matrix(1,0,0,1,812.5,338.6000061035156)" style="cursor: default; opacity: 1;"><rect joint-selector="rect" id="v-909" fill="#ffffff" rx="3" ry="3" pointer-events="none" width="53.848388671875" height="32.48437690734863" transform="matrix(1,0,0,1,-26.9,-16.2)"></rect><text joint-selector="text" id="v-908" font-size="24px" xml:space="preserve" y="0.8em" fill="#000000" text-anchor="middle" pointer-events="none" font-family="Open Sans, Tahoma, Arial" font-weight="normal" transform="matrix(1,0,0,1,0,-10.3)"><tspan dy="0" >Uses</tspan></text></g><g id="v-906"  label-idx="1" cursor="move" transform="matrix(1,0,0,1,812.5,369)" style="cursor: default; opacity: 1;"><rect joint-selector="rect" id="v-911" fill="#ffffff" rx="3" ry="3"  pointer-events="none" width="146.1104736328125" height="22.148436546325684" transform="matrix(1,0,0,1,-73.1,-11.1)" style="display: block;"></rect><text joint-selector="text" id="v-910" font-size="16.799999999999997px" xml:space="preserve" y="0.8em" fill="#000000" text-anchor="middle" pointer-events="none"  font-family="Open Sans, Tahoma, Arial" font-weight="normal" transform="matrix(1,0,0,1,0,-6.8)" style="display: block;"><tspan dy="0" >[Mouse, keyboard]</tspan></text></g><g id="v-907"  label-idx="2" cursor="move" transform="matrix(1,0,0,1,802.5,377.3999938964844)" style="cursor: default; opacity: 1;"><rect joint-selector="rect" id="v-913" fill="#ffffff" rx="3" ry="3"  width="0" height="0" transform="matrix(1,0,0,1,0,0)" display="none"></rect><text joint-selector="text" id="v-912" fill="#000000" font-size="14" text-anchor="middle" pointer-events="none"></text></g></g><g  display="none"></g><g  id="v-918" display="none"><g  id="v-903"><path  end="source" d="M 26 0 L 0 13 L 26 26 z"></path></g><g  id="v-904"><path  end="target" d="M 26 0 L 0 13 L 26 26 z"></path></g></g><g  id="v-917" display="none"><g  id="v-902" transform="translate(639.988931931166, 347.9409160454392) "><g  event="remove"><circle r="11"></circle><path transform="scale(.8) translate(-16, -16)" d="M24.778,21.419 19.276,15.917 24.777,10.415 21.949,7.585 16.447,13.087 10.945,7.585 8.117,10.415 13.618,15.917 8.116,21.419 10.946,24.248 16.447,18.746 21.948,24.248z"></path><title>Remove link.</title></g><g  event="link:options"><circle r="11" transform="translate(25)"></circle><path fill="white" transform="scale(.55) translate(29, -16)" d="M31.229,17.736c0.064-0.571,0.104-1.148,0.104-1.736s-0.04-1.166-0.104-1.737l-4.377-1.557c-0.218-0.716-0.504-1.401-0.851-2.05l1.993-4.192c-0.725-0.91-1.549-1.734-2.458-2.459l-4.193,1.994c-0.647-0.347-1.334-0.632-2.049-0.849l-1.558-4.378C17.165,0.708,16.588,0.667,16,0.667s-1.166,0.041-1.737,0.105L12.707,5.15c-0.716,0.217-1.401,0.502-2.05,0.849L6.464,4.005C5.554,4.73,4.73,5.554,4.005,6.464l1.994,4.192c-0.347,0.648-0.632,1.334-0.849,2.05l-4.378,1.557C0.708,14.834,0.667,15.412,0.667,16s0.041,1.165,0.105,1.736l4.378,1.558c0.217,0.715,0.502,1.401,0.849,2.049l-1.994,4.193c0.725,0.909,1.549,1.733,2.459,2.458l4.192-1.993c0.648,0.347,1.334,0.633,2.05,0.851l1.557,4.377c0.571,0.064,1.148,0.104,1.737,0.104c0.588,0,1.165-0.04,1.736-0.104l1.558-4.377c0.715-0.218,1.399-0.504,2.049-0.851l4.193,1.993c0.909-0.725,1.733-1.549,2.458-2.458l-1.993-4.193c0.347-0.647,0.633-1.334,0.851-2.049L31.229,17.736zM16,20.871c-2.69,0-4.872-2.182-4.872-4.871c0-2.69,2.182-4.872,4.872-4.872c2.689,0,4.871,2.182,4.871,4.872C20.871,18.689,18.689,20.871,16,20.871z"></path><title>Link options.</title></g></g></g></g><!--z-index:50--><g   id="j_70" ><path  stroke="#707070" d="M 3570 928 L 4055 931" id="v-937" stroke-width="2" stroke-dasharray="8 8" fill="none" style="opacity: 1;"></path><path  fill="black" stroke="black" d="M 0 0 0 0" transform="matrix(0.9999856310898367,0.0053607475095401235,-0.0053607475095401235,0.9999856310898367,3570,928.2000122070312)"></path><path  fill="#000000" stroke="#707070" d="M 20 0 L 0 10 L 20 20 z" id="v-939" transform="matrix(-0.9999856316056834,-0.00536065128342246,0.00536065128342246,-0.9999856316056834,4054.9464939438476,940.7998617546723)" style="opacity: 1;"></path><path  d="M 3570 928 L 4055 931" id="v-938" fill="none" style="cursor: default;"></path><g ><g id="v-928"  label-idx="0" cursor="move" transform="matrix(1,0,0,1,3812.5,916.0999755859375)" style="cursor: default; opacity: 1;"><rect joint-selector="rect" id="v-932" fill="#ffffff" rx="3" ry="3" pointer-events="none" width="144.4493408203125" height="61.28437423706055" transform="matrix(1,0,0,1,-72.2,-30.6)"></rect><text joint-selector="text" id="v-931" font-size="24px" xml:space="preserve" y="0.8em" fill="#000000" text-anchor="middle" pointer-events="none" font-family="Open Sans, Tahoma, Arial" font-weight="normal" transform="matrix(1,0,0,1,0,-24.7)"><tspan dy="0" >Reads/writes</tspan><tspan dy="1.2em" x="0" >data</tspan></text></g><g id="v-929"  label-idx="1" cursor="move" transform="matrix(1,0,0,1,3812.5,960.9000244140625)" style="cursor: default; opacity: 1;"><rect joint-selector="rect" id="v-934" fill="#ffffff" rx="3" ry="3"  pointer-events="none" width="146.1566162109375" height="22.148436546325684" transform="matrix(1,0,0,1,-73.1,-11.1)" style="display: block;"></rect><text joint-selector="text" id="v-933" font-size="16.799999999999997px" xml:space="preserve" y="0.8em" fill="#000000" text-anchor="middle" pointer-events="none"  font-family="Open Sans, Tahoma, Arial" font-weight="normal" transform="matrix(1,0,0,1,0,-6.8)" style="display: block;"><tspan dy="0" >[PostgreSQL/5432]</tspan></text></g><g id="v-930"  label-idx="2" cursor="move" transform="matrix(1,0,0,1,3802.5,969.2999877929688)" style="cursor: default; opacity: 1;"><rect joint-selector="rect" id="v-936" fill="#ffffff" rx="3" ry="3"  width="0" height="0" transform="matrix(1,0,0,1,0,0)" display="none"></rect><text joint-selector="text" id="v-935" fill="#000000" font-size="14" text-anchor="middle" pointer-events="none"></text></g></g><g  display="none"></g><g  id="v-941" display="none"><g  id="v-926"><path  end="source" d="M 26 0 L 0 13 L 26 26 z"></path></g><g  id="v-927"><path  end="target" d="M 26 0 L 0 13 L 26 26 z"></path></g></g><g  id="v-940" display="none"><g  id="v-925" transform="translate(3609.9992347971734, 928.2474179471991) "><g  event="remove"><circle r="11"></circle><path transform="scale(.8) translate(-16, -16)" d="M24.778,21.419 19.276,15.917 24.777,10.415 21.949,7.585 16.447,13.087 10.945,7.585 8.117,10.415 13.618,15.917 8.116,21.419 10.946,24.248 16.447,18.746 21.948,24.248z"></path><title>Remove link.</title></g><g  event="link:options"><circle r="11" transform="translate(25)"></circle><path fill="white" transform="scale(.55) translate(29, -16)" d="M31.229,17.736c0.064-0.571,0.104-1.148,0.104-1.736s-0.04-1.166-0.104-1.737l-4.377-1.557c-0.218-0.716-0.504-1.401-0.851-2.05l1.993-4.192c-0.725-0.91-1.549-1.734-2.458-2.459l-4.193,1.994c-0.647-0.347-1.334-0.632-2.049-0.849l-1.558-4.378C17.165,0.708,16.588,0.667,16,0.667s-1.166,0.041-1.737,0.105L12.707,5.15c-0.716,0.217-1.401,0.502-2.05,0.849L6.464,4.005C5.554,4.73,4.73,5.554,4.005,6.464l1.994,4.192c-0.347,0.648-0.632,1.334-0.849,2.05l-4.378,1.557C0.708,14.834,0.667,15.412,0.667,16s0.041,1.165,0.105,1.736l4.378,1.558c0.217,0.715,0.502,1.401,0.849,2.049l-1.994,4.193c0.725,0.909,1.549,1.733,2.459,2.458l4.192-1.993c0.648,0.347,1.334,0.633,2.05,0.851l1.557,4.377c0.571,0.064,1.148,0.104,1.737,0.104c0.588,0,1.165-0.04,1.736-0.104l1.558-4.377c0.715-0.218,1.399-0.504,2.049-0.851l4.193,1.993c0.909-0.725,1.733-1.549,2.458-2.458l-1.993-4.193c0.347-0.647,0.633-1.334,0.851-2.049L31.229,17.736zM16,20.871c-2.69,0-4.872-2.182-4.872-4.871c0-2.69,2.182-4.872,4.872-4.872c2.689,0,4.871,2.182,4.871,4.872C20.871,18.689,18.689,20.871,16,20.871z"></path><title>Link options.</title></g></g></g></g><!--z-index:51--><g   id="j_71" ><path  stroke="#707070" d="M 1475 362 L 2075 362" id="v-957" stroke-width="2" stroke-dasharray="8 8" fill="none" style="opacity: 1;"></path><path  fill="black" stroke="black" d="M 0 0 0 0" transform="matrix(1,0,0,1,1475,362)"></path><path  fill="#000000" stroke="#707070" d="M 20 0 L 0 10 L 20 20 z" id="v-959" transform="matrix(-1,1.2246467991473532e-16,-1.2246467991473532e-16,-1,2075,372)" style="opacity: 1;"></path><path  d="M 1475 362 L 2075 362" id="v-958" fill="none" style="cursor: default;"></path><g ><g id="v-948"  label-idx="0" cursor="move" transform="matrix(1,0,0,1,1775,348.6000061035156)" style="cursor: default; opacity: 1;"><rect joint-selector="rect" id="v-952" fill="#ffffff" rx="3" ry="3" pointer-events="none" width="150.932373046875" height="32.48437690734863" transform="matrix(1,0,0,1,-75.5,-16.2)"></rect><text joint-selector="text" id="v-951" font-size="24px" xml:space="preserve" y="0.8em" fill="#000000" text-anchor="middle" pointer-events="none" font-family="Open Sans, Tahoma, Arial" font-weight="normal" transform="matrix(1,0,0,1,0,-10.3)"><tspan dy="0" >HTTP request</tspan></text></g><g id="v-949"  label-idx="1" cursor="move" transform="matrix(1,0,0,1,1775,379)" style="cursor: default; opacity: 1;"><rect joint-selector="rect" id="v-954" fill="#ffffff" rx="3" ry="3"  pointer-events="none" width="77.3118896484375" height="22.148436546325684" transform="matrix(1,0,0,1,-38.7,-11.1)" style="display: block;"></rect><text joint-selector="text" id="v-953" font-size="16.799999999999997px" xml:space="preserve" y="0.8em" fill="#000000" text-anchor="middle" pointer-events="none"  font-family="Open Sans, Tahoma, Arial" font-weight="normal" transform="matrix(1,0,0,1,0,-6.8)" style="display: block;"><tspan dy="0" >[HTTP/80]</tspan></text></g><g id="v-950"  label-idx="2" cursor="move" transform="matrix(1,0,0,1,1765,387.3999938964844)" style="cursor: default; opacity: 1;"><rect joint-selector="rect" id="v-956" fill="#ffffff" rx="3" ry="3"  width="0" height="0" transform="matrix(1,0,0,1,0,0)" display="none"></rect><text joint-selector="text" id="v-955" fill="#000000" font-size="14" text-anchor="middle" pointer-events="none"></text></g></g><g  display="none"></g><g  id="v-961" display="none"><g  id="v-946"><path  end="source" d="M 26 0 L 0 13 L 26 26 z"></path></g><g  id="v-947"><path  end="target" d="M 26 0 L 0 13 L 26 26 z"></path></g></g><g  id="v-960" display="none"><g  id="v-945" transform="translate(1515, 362) "><g  event="remove"><circle r="11"></circle><path transform="scale(.8) translate(-16, -16)" d="M24.778,21.419 19.276,15.917 24.777,10.415 21.949,7.585 16.447,13.087 10.945,7.585 8.117,10.415 13.618,15.917 8.116,21.419 10.946,24.248 16.447,18.746 21.948,24.248z"></path><title>Remove link.</title></g><g  event="link:options"><circle r="11" transform="translate(25)"></circle><path fill="white" transform="scale(.55) translate(29, -16)" d="M31.229,17.736c0.064-0.571,0.104-1.148,0.104-1.736s-0.04-1.166-0.104-1.737l-4.377-1.557c-0.218-0.716-0.504-1.401-0.851-2.05l1.993-4.192c-0.725-0.91-1.549-1.734-2.458-2.459l-4.193,1.994c-0.647-0.347-1.334-0.632-2.049-0.849l-1.558-4.378C17.165,0.708,16.588,0.667,16,0.667s-1.166,0.041-1.737,0.105L12.707,5.15c-0.716,0.217-1.401,0.502-2.05,0.849L6.464,4.005C5.554,4.73,4.73,5.554,4.005,6.464l1.994,4.192c-0.347,0.648-0.632,1.334-0.849,2.05l-4.378,1.557C0.708,14.834,0.667,15.412,0.667,16s0.041,1.165,0.105,1.736l4.378,1.558c0.217,0.715,0.502,1.401,0.849,2.049l-1.994,4.193c0.725,0.909,1.549,1.733,2.459,2.458l4.192-1.993c0.648,0.347,1.334,0.633,2.05,0.851l1.557,4.377c0.571,0.064,1.148,0.104,1.737,0.104c0.588,0,1.165-0.04,1.736-0.104l1.558-4.377c0.715-0.218,1.399-0.504,2.049-0.851l4.193,1.993c0.909-0.725,1.733-1.549,2.458-2.458l-1.993-4.193c0.347-0.647,0.633-1.334,0.851-2.049L31.229,17.736zM16,20.871c-2.69,0-4.872-2.182-4.872-4.871c0-2.69,2.182-4.872,4.872-4.872c2.689,0,4.871,2.182,4.871,4.872C20.871,18.689,18.689,20.871,16,20.871z"></path><title>Link options.</title></g></g></g></g><!--z-index:52--><g   id="j_72" ><path  stroke="#707070" d="M 2075 431 L 1970 464 C 1963.333333333333 466 1956.6666666666665 467 1950 467 L 1575 467 C 1568.3333333333333 467 1562 466 1556 464 L 1475 437" id="v-979" stroke-width="2" stroke-dasharray="8 8" fill="none" style="opacity: 1;"></path><path  fill="black" stroke="black" d="M 0 0 0 0" transform="matrix(-0.9554857322216073,0.2950373120826228,-0.2950373120826228,-0.9554857322216073,2075,431.489990234375)"></path><path  fill="#000000" stroke="#707070" d="M 20 0 L 0 10 L 20 20 z" id="v-981" transform="matrix(0.9486833027716106,0.3162277518535472,-0.3162277518535472,0.9486833027716106,1478.1622608970695,427.5131819342172)" style="opacity: 1;"></path><path  d="M 2075 431 L 1970 464 C 1963.333333333333 466 1956.6666666666665 467 1950 467 L 1575 467 C 1568.3333333333333 467 1562 466 1556 464 L 1475 437" id="v-980" fill="none" style="cursor: default;"></path><g ><g id="v-970"  label-idx="0" cursor="move" transform="matrix(1,0,0,1,1775.3297119140625,453.6000061035156)" style="cursor: default; opacity: 1;"><rect joint-selector="rect" id="v-974" fill="#ffffff" rx="3" ry="3" pointer-events="none" width="168.97412109375" height="61.28437423706055" transform="matrix(1,0,0,1,-84.5,-30.6)"></rect><text joint-selector="text" id="v-973" font-size="24px" xml:space="preserve" y="0.8em" fill="#000000" text-anchor="middle" pointer-events="none" font-family="Open Sans, Tahoma, Arial" font-weight="normal" transform="matrix(1,0,0,1,0,-24.7)"><tspan dy="0" >301 Redirect to</tspan><tspan dy="1.2em" x="0" >HTTPS</tspan></text></g><g id="v-971"  label-idx="1" cursor="move" transform="matrix(1,0,0,1,1775.3297119140625,498.3999938964844)" style="cursor: default; opacity: 1;"><rect joint-selector="rect" id="v-976" fill="#ffffff" rx="3" ry="3"  pointer-events="none" width="132.2215576171875" height="22.148436546325684" transform="matrix(1,0,0,1,-66.1,-11.1)" style="display: block;"></rect><text joint-selector="text" id="v-975" font-size="16.799999999999997px" xml:space="preserve" y="0.8em" fill="#000000" text-anchor="middle" pointer-events="none"  font-family="Open Sans, Tahoma, Arial" font-weight="normal" transform="matrix(1,0,0,1,0,-6.8)" style="display: block;"><tspan dy="0" >[HTTP Response]</tspan></text></g><g id="v-972"  label-idx="2" cursor="move" transform="matrix(1,0,0,1,1765.3297119140625,506.79998779296875)" style="cursor: default; opacity: 1;"><rect joint-selector="rect" id="v-978" fill="#ffffff" rx="3" ry="3"  width="0" height="0" transform="matrix(1,0,0,1,0,0)" display="none"></rect><text joint-selector="text" id="v-977" fill="#000000" font-size="14" text-anchor="middle" pointer-events="none"></text></g></g><g  display="none"><g  transform="translate(1960, 467)" id="v-966"><circle  idx="0" r="10"></circle><path  idx="0" d="M16,5.333c-7.732,0-14,4.701-14,10.5c0,1.982,0.741,3.833,2.016,5.414L2,25.667l5.613-1.441c2.339,1.317,5.237,2.107,8.387,2.107c7.732,0,14-4.701,14-10.5C30,10.034,23.732,5.333,16,5.333z" transform="translate(5, -33)"></path><path  idx="0" transform="scale(.8) translate(9.5, -37)" d="M24.778,21.419 19.276,15.917 24.777,10.415 21.949,7.585 16.447,13.087 10.945,7.585 8.117,10.415 13.618,15.917 8.116,21.419 10.946,24.248 16.447,18.746 21.948,24.248z"><title>Remove vertex.</title></path></g><g  transform="translate(1565, 467)" id="v-967"><circle  idx="1" r="10"></circle><path  idx="1" d="M16,5.333c-7.732,0-14,4.701-14,10.5c0,1.982,0.741,3.833,2.016,5.414L2,25.667l5.613-1.441c2.339,1.317,5.237,2.107,8.387,2.107c7.732,0,14-4.701,14-10.5C30,10.034,23.732,5.333,16,5.333z" transform="translate(5, -33)"></path><path  idx="1" transform="scale(.8) translate(9.5, -37)" d="M24.778,21.419 19.276,15.917 24.777,10.415 21.949,7.585 16.447,13.087 10.945,7.585 8.117,10.415 13.618,15.917 8.116,21.419 10.946,24.248 16.447,18.746 21.948,24.248z"><title>Remove vertex.</title></path></g></g><g  id="v-983" display="none"><g  id="v-968"><path  end="source" d="M 26 0 L 0 13 L 26 26 z"></path></g><g  id="v-969"><path  end="target" d="M 26 0 L 0 13 L 26 26 z"></path></g></g><g  id="v-982" display="none"><g  id="v-965" transform="translate(2036.8402513239498, 442.99306386961575) "><g  event="remove"><circle r="11"></circle><path transform="scale(.8) translate(-16, -16)" d="M24.778,21.419 19.276,15.917 24.777,10.415 21.949,7.585 16.447,13.087 10.945,7.585 8.117,10.415 13.618,15.917 8.116,21.419 10.946,24.248 16.447,18.746 21.948,24.248z"></path><title>Remove link.</title></g><g  event="link:options"><circle r="11" transform="translate(25)"></circle><path fill="white" transform="scale(.55) translate(29, -16)" d="M31.229,17.736c0.064-0.571,0.104-1.148,0.104-1.736s-0.04-1.166-0.104-1.737l-4.377-1.557c-0.218-0.716-0.504-1.401-0.851-2.05l1.993-4.192c-0.725-0.91-1.549-1.734-2.458-2.459l-4.193,1.994c-0.647-0.347-1.334-0.632-2.049-0.849l-1.558-4.378C17.165,0.708,16.588,0.667,16,0.667s-1.166,0.041-1.737,0.105L12.707,5.15c-0.716,0.217-1.401,0.502-2.05,0.849L6.464,4.005C5.554,4.73,4.73,5.554,4.005,6.464l1.994,4.192c-0.347,0.648-0.632,1.334-0.849,2.05l-4.378,1.557C0.708,14.834,0.667,15.412,0.667,16s0.041,1.165,0.105,1.736l4.378,1.558c0.217,0.715,0.502,1.401,0.849,2.049l-1.994,4.193c0.725,0.909,1.549,1.733,2.459,2.458l4.192-1.993c0.648,0.347,1.334,0.633,2.05,0.851l1.557,4.377c0.571,0.064,1.148,0.104,1.737,0.104c0.588,0,1.165-0.04,1.736-0.104l1.558-4.377c0.715-0.218,1.399-0.504,2.049-0.851l4.193,1.993c0.909-0.725,1.733-1.549,2.458-2.458l-1.993-4.193c0.347-0.647,0.633-1.334,0.851-2.049L31.229,17.736zM16,20.871c-2.69,0-4.872-2.182-4.872-4.871c0-2.69,2.182-4.872,4.872-4.872c2.689,0,4.871,2.182,4.871,4.872C20.871,18.689,18.689,20.871,16,20.871z"></path><title>Link options.</title></g></g></g></g><!--z-index:53--><g   id="j_73" ><path  stroke="#707070" d="M 1475 485 L 2075 814" id="v-999" stroke-width="2" stroke-dasharray="8 8" fill="none" style="opacity: 1;"></path><path  fill="black" stroke="black" d="M 0 0 0 0" transform="matrix(0.8770909824321728,0.4803242743565705,-0.4803242743565705,0.8770909824321728,1475,485.2099914550781)"></path><path  fill="#000000" stroke="#707070" d="M 20 0 L 0 10 L 20 20 z" id="v-1001" transform="matrix(-0.877090934462884,-0.4803243619503646,0.4803243619503646,-0.877090934462884,2070.1966696313752,822.5609083352263)" style="opacity: 1;"></path><path  d="M 1475 485 L 2075 814" id="v-1000" fill="none" style="cursor: default;"></path><g ><g id="v-990"  label-idx="0" cursor="move" transform="matrix(1,0,0,1,1775,636.0999755859375)" style="cursor: default; opacity: 1;"><rect joint-selector="rect" id="v-994" fill="#ffffff" rx="3" ry="3" pointer-events="none" width="164.0830078125" height="32.48437690734863" transform="matrix(1,0,0,1,-82,-16.2)"></rect><text joint-selector="text" id="v-993" font-size="24px" xml:space="preserve" y="0.8em" fill="#000000" text-anchor="middle" pointer-events="none" font-family="Open Sans, Tahoma, Arial" font-weight="normal" transform="matrix(1,0,0,1,0,-10.3)"><tspan dy="0" >HTTPS request</tspan></text></g><g id="v-991"  label-idx="1" cursor="move" transform="matrix(1,0,0,1,1775,666.5)" style="cursor: default; opacity: 1;"><rect joint-selector="rect" id="v-996" fill="#ffffff" rx="3" ry="3"  pointer-events="none" width="96.1380615234375" height="22.148436546325684" transform="matrix(1,0,0,1,-48.1,-11.1)" style="display: block;"></rect><text joint-selector="text" id="v-995" font-size="16.799999999999997px" xml:space="preserve" y="0.8em" fill="#000000" text-anchor="middle" pointer-events="none"  font-family="Open Sans, Tahoma, Arial" font-weight="normal" transform="matrix(1,0,0,1,0,-6.8)" style="display: block;"><tspan dy="0" >[HTTPS/443]</tspan></text></g><g id="v-992"  label-idx="2" cursor="move" transform="matrix(1,0,0,1,1765,674.9000244140625)" style="cursor: default; opacity: 1;"><rect joint-selector="rect" id="v-998" fill="#ffffff" rx="3" ry="3"  width="0" height="0" transform="matrix(1,0,0,1,0,0)" display="none"></rect><text joint-selector="text" id="v-997" fill="#000000" font-size="14" text-anchor="middle" pointer-events="none"></text></g></g><g  display="none"></g><g  id="v-1003" display="none"><g  id="v-988"><path  end="source" d="M 26 0 L 0 13 L 26 26 z"></path></g><g  id="v-989"><path  end="target" d="M 26 0 L 0 13 L 26 26 z"></path></g></g><g  id="v-1002" display="none"><g  id="v-987" transform="translate(1510.0732913114948, 504.231854735803) "><g  event="remove"><circle r="11"></circle><path transform="scale(.8) translate(-16, -16)" d="M24.778,21.419 19.276,15.917 24.777,10.415 21.949,7.585 16.447,13.087 10.945,7.585 8.117,10.415 13.618,15.917 8.116,21.419 10.946,24.248 16.447,18.746 21.948,24.248z"></path><title>Remove link.</title></g><g  event="link:options"><circle r="11" transform="translate(25)"></circle><path fill="white" transform="scale(.55) translate(29, -16)" d="M31.229,17.736c0.064-0.571,0.104-1.148,0.104-1.736s-0.04-1.166-0.104-1.737l-4.377-1.557c-0.218-0.716-0.504-1.401-0.851-2.05l1.993-4.192c-0.725-0.91-1.549-1.734-2.458-2.459l-4.193,1.994c-0.647-0.347-1.334-0.632-2.049-0.849l-1.558-4.378C17.165,0.708,16.588,0.667,16,0.667s-1.166,0.041-1.737,0.105L12.707,5.15c-0.716,0.217-1.401,0.502-2.05,0.849L6.464,4.005C5.554,4.73,4.73,5.554,4.005,6.464l1.994,4.192c-0.347,0.648-0.632,1.334-0.849,2.05l-4.378,1.557C0.708,14.834,0.667,15.412,0.667,16s0.041,1.165,0.105,1.736l4.378,1.558c0.217,0.715,0.502,1.401,0.849,2.049l-1.994,4.193c0.725,0.909,1.549,1.733,2.459,2.458l4.192-1.993c0.648,0.347,1.334,0.633,2.05,0.851l1.557,4.377c0.571,0.064,1.148,0.104,1.737,0.104c0.588,0,1.165-0.04,1.736-0.104l1.558-4.377c0.715-0.218,1.399-0.504,2.049-0.851l4.193,1.993c0.909-0.725,1.733-1.549,2.458-2.458l-1.993-4.193c0.347-0.647,0.633-1.334,0.851-2.049L31.229,17.736zM16,20.871c-2.69,0-4.872-2.182-4.872-4.871c0-2.69,2.182-4.872,4.872-4.872c2.689,0,4.871,2.182,4.871,4.872C20.871,18.689,18.689,20.871,16,20.871z"></path><title>Link options.</title></g></g></g></g><!--z-index:54--><g   id="j_74" ><path  stroke="#707070" d="M 2330 1087 L 2390 1392" id="v-1016" stroke-width="2" stroke-dasharray="8 8" fill="none" style="opacity: 1;"></path><path  fill="black" stroke="black" d="M 0 0 0 0" transform="matrix(0.1945697251138066,0.9808886899486291,-0.9808886899486291,0.1945697251138066,2329.75,1087)"></path><path  fill="#000000" stroke="#707070" d="M 20 0 L 0 10 L 20 20 z" id="v-1018" transform="matrix(-0.1945694638873404,-0.9808887417656464,0.9808887417656464,-0.1945694638873404,2380.4410064399667,1393.945744165905)" style="opacity: 1;"></path><path  d="M 2330 1087 L 2390 1392" id="v-1017" fill="none" style="cursor: default;"></path><g ><g id="v-1007"  label-idx="0" cursor="move" transform="matrix(1,0,0,1,2360,1226.0999755859375)" style="cursor: default; opacity: 1;"><rect joint-selector="rect" id="v-1011" fill="#ffffff" rx="3" ry="3" pointer-events="none" width="53.848388671875" height="32.48437690734863" transform="matrix(1,0,0,1,-26.9,-16.2)"></rect><text joint-selector="text" id="v-1010" font-size="24px" xml:space="preserve" y="0.8em" fill="#000000" text-anchor="middle" pointer-events="none" font-family="Open Sans, Tahoma, Arial" font-weight="normal" transform="matrix(1,0,0,1,0,-10.3)"><tspan dy="0" >Uses</tspan></text></g><g id="v-1008"  label-idx="1" cursor="move" transform="matrix(1,0,0,1,2360,1256.5)" style="cursor: default; opacity: 1;"><rect joint-selector="rect" id="v-1013" fill="#ffffff" rx="3" ry="3"  pointer-events="none" width="38.2060546875" height="22.148436546325684" transform="matrix(1,0,0,1,-19.1,-11.1)" style="display: block;"></rect><text joint-selector="text" id="v-1012" font-size="16.799999999999997px" xml:space="preserve" y="0.8em" fill="#000000" text-anchor="middle" pointer-events="none"  font-family="Open Sans, Tahoma, Arial" font-weight="normal" transform="matrix(1,0,0,1,0,-6.8)" style="display: block;"><tspan dy="0" >[TLS]</tspan></text></g><g id="v-1009"  label-idx="2" cursor="move" transform="matrix(1,0,0,1,2350,1264.9000244140625)" style="cursor: default; opacity: 1;"><rect joint-selector="rect" id="v-1015" fill="#ffffff" rx="3" ry="3"  width="0" height="0" transform="matrix(1,0,0,1,0,0)" display="none"></rect><text joint-selector="text" id="v-1014" fill="#000000" font-size="14" text-anchor="middle" pointer-events="none"></text></g></g><g  display="none"></g><g  id="v-1020" display="none"><g  id="v-1005"><path  end="source" d="M 26 0 L 0 13 L 26 26 z"></path></g><g  id="v-1006"><path  end="target" d="M 26 0 L 0 13 L 26 26 z"></path></g></g><g  id="v-1019" display="none"><g  id="v-1004" transform="translate(2337.7208744117333, 1126.2477782596447) "><g  event="remove"><circle r="11"></circle><path transform="scale(.8) translate(-16, -16)" d="M24.778,21.419 19.276,15.917 24.777,10.415 21.949,7.585 16.447,13.087 10.945,7.585 8.117,10.415 13.618,15.917 8.116,21.419 10.946,24.248 16.447,18.746 21.948,24.248z"></path><title>Remove link.</title></g><g  event="link:options"><circle r="11" transform="translate(25)"></circle><path fill="white" transform="scale(.55) translate(29, -16)" d="M31.229,17.736c0.064-0.571,0.104-1.148,0.104-1.736s-0.04-1.166-0.104-1.737l-4.377-1.557c-0.218-0.716-0.504-1.401-0.851-2.05l1.993-4.192c-0.725-0.91-1.549-1.734-2.458-2.459l-4.193,1.994c-0.647-0.347-1.334-0.632-2.049-0.849l-1.558-4.378C17.165,0.708,16.588,0.667,16,0.667s-1.166,0.041-1.737,0.105L12.707,5.15c-0.716,0.217-1.401,0.502-2.05,0.849L6.464,4.005C5.554,4.73,4.73,5.554,4.005,6.464l1.994,4.192c-0.347,0.648-0.632,1.334-0.849,2.05l-4.378,1.557C0.708,14.834,0.667,15.412,0.667,16s0.041,1.165,0.105,1.736l4.378,1.558c0.217,0.715,0.502,1.401,0.849,2.049l-1.994,4.193c0.725,0.909,1.549,1.733,2.459,2.458l4.192-1.993c0.648,0.347,1.334,0.633,2.05,0.851l1.557,4.377c0.571,0.064,1.148,0.104,1.737,0.104c0.588,0,1.165-0.04,1.736-0.104l1.558-4.377c0.715-0.218,1.399-0.504,2.049-0.851l4.193,1.993c0.909-0.725,1.733-1.549,2.458-2.458l-1.993-4.193c0.347-0.647,0.633-1.334,0.851-2.049L31.229,17.736zM16,20.871c-2.69,0-4.872-2.182-4.872-4.871c0-2.69,2.182-4.872,4.872-4.872c2.689,0,4.871,2.182,4.871,4.872C20.871,18.689,18.689,20.871,16,20.871z"></path><title>Link options.</title></g></g></g></g><!--z-index:55--><g   id="j_75" ><path  stroke="#707070" d="M 2525 935 L 3120 929" id="v-1036" stroke-width="2" stroke-dasharray="8 8" fill="none" style="opacity: 1;"></path><path  fill="black" stroke="black" d="M 0 0 0 0" transform="matrix(0.9999541179902534,-0.009579243933338656,0.009579243933338656,0.9999541179902534,2525,934.8499755859375)"></path><path  fill="#000000" stroke="#707070" d="M 20 0 L 0 10 L 20 20 z" id="v-1038" transform="matrix(-0.999954115439111,0.009579510237227796,-0.009579510237227796,-0.999954115439111,3120.0958245380134,939.1495346262376)" style="opacity: 1;"></path><path  d="M 2525 935 L 3120 929" id="v-1037" fill="none" style="cursor: default;"></path><g ><g id="v-1027"  label-idx="0" cursor="move" transform="matrix(1,0,0,1,2822.5,918.5999755859375)" style="cursor: default; opacity: 1;"><rect joint-selector="rect" id="v-1031" fill="#ffffff" rx="3" ry="3" pointer-events="none" width="133.6981201171875" height="61.28437423706055" transform="matrix(1,0,0,1,-66.8,-30.6)"></rect><text joint-selector="text" id="v-1030" font-size="24px" xml:space="preserve" y="0.8em" fill="#000000" text-anchor="middle" pointer-events="none" font-family="Open Sans, Tahoma, Arial" font-weight="normal" transform="matrix(1,0,0,1,0,-24.7)"><tspan dy="0" >Forwards to</tspan><tspan dy="1.2em" x="0" >backend</tspan></text></g><g id="v-1028"  label-idx="1" cursor="move" transform="matrix(1,0,0,1,2822.5,963.4000244140625)" style="cursor: default; opacity: 1;"><rect joint-selector="rect" id="v-1033" fill="#ffffff" rx="3" ry="3"  pointer-events="none" width="96.5302734375" height="22.148436546325684" transform="matrix(1,0,0,1,-48.3,-11.1)" style="display: block;"></rect><text joint-selector="text" id="v-1032" font-size="16.799999999999997px" xml:space="preserve" y="0.8em" fill="#000000" text-anchor="middle" pointer-events="none"  font-family="Open Sans, Tahoma, Arial" font-weight="normal" transform="matrix(1,0,0,1,0,-6.8)" style="display: block;"><tspan dy="0" >[HTTP/5001]</tspan></text></g><g id="v-1029"  label-idx="2" cursor="move" transform="matrix(1,0,0,1,2812.5,971.7999877929688)" style="cursor: default; opacity: 1;"><rect joint-selector="rect" id="v-1035" fill="#ffffff" rx="3" ry="3"  width="0" height="0" transform="matrix(1,0,0,1,0,0)" display="none"></rect><text joint-selector="text" id="v-1034" fill="#000000" font-size="14" text-anchor="middle" pointer-events="none"></text></g></g><g  display="none"></g><g  id="v-1040" display="none"><g  id="v-1025"><path  end="source" d="M 26 0 L 0 13 L 26 26 z"></path></g><g  id="v-1026"><path  end="target" d="M 26 0 L 0 13 L 26 26 z"></path></g></g><g  id="v-1039" display="none"><g  id="v-1024" transform="translate(2564.9979664004145, 934.5966591623487) "><g  event="remove"><circle r="11"></circle><path transform="scale(.8) translate(-16, -16)" d="M24.778,21.419 19.276,15.917 24.777,10.415 21.949,7.585 16.447,13.087 10.945,7.585 8.117,10.415 13.618,15.917 8.116,21.419 10.946,24.248 16.447,18.746 21.948,24.248z"></path><title>Remove link.</title></g><g  event="link:options"><circle r="11" transform="translate(25)"></circle><path fill="white" transform="scale(.55) translate(29, -16)" d="M31.229,17.736c0.064-0.571,0.104-1.148,0.104-1.736s-0.04-1.166-0.104-1.737l-4.377-1.557c-0.218-0.716-0.504-1.401-0.851-2.05l1.993-4.192c-0.725-0.91-1.549-1.734-2.458-2.459l-4.193,1.994c-0.647-0.347-1.334-0.632-2.049-0.849l-1.558-4.378C17.165,0.708,16.588,0.667,16,0.667s-1.166,0.041-1.737,0.105L12.707,5.15c-0.716,0.217-1.401,0.502-2.05,0.849L6.464,4.005C5.554,4.73,4.73,5.554,4.005,6.464l1.994,4.192c-0.347,0.648-0.632,1.334-0.849,2.05l-4.378,1.557C0.708,14.834,0.667,15.412,0.667,16s0.041,1.165,0.105,1.736l4.378,1.558c0.217,0.715,0.502,1.401,0.849,2.049l-1.994,4.193c0.725,0.909,1.549,1.733,2.459,2.458l4.192-1.993c0.648,0.347,1.334,0.633,2.05,0.851l1.557,4.377c0.571,0.064,1.148,0.104,1.737,0.104c0.588,0,1.165-0.04,1.736-0.104l1.558-4.377c0.715-0.218,1.399-0.504,2.049-0.851l4.193,1.993c0.909-0.725,1.733-1.549,2.458-2.458l-1.993-4.193c0.347-0.647,0.633-1.334,0.851-2.049L31.229,17.736zM16,20.871c-2.69,0-4.872-2.182-4.872-4.871c0-2.69,2.182-4.872,4.872-4.872c2.689,0,4.871,2.182,4.871,4.872C20.871,18.689,18.689,20.871,16,20.871z"></path><title>Link options.</title></g></g></g></g><!--z-index:56--><!--z-index:57--><!--z-index:58--></g><g ></g><g ></g><g ></g></g></svg>